<svg id="Layer_1" data-name="Layer 1" xmlns="http://www.w3.org/2000/svg" viewBox="0 0 60.34 60.34"><rect width="60.34" height="60.34" rx="12.86" style="fill:#00005b"/><path d="M25.69,36.06H16.61L14.34,42.9c0,.21-.17.32-.43.32H9.8q-.39,0-.27-.39l8.13-23.25A6.6,6.6,0,0,0,18,17.39c0-.15.09-.23.27-.23h5.64a.35.35,0,0,1,.31.19l9.08,25.52c.07.23,0,.35-.24.35H28.46a.4.4,0,0,1-.39-.28Zm-8.06-3.8h7c-.11-.36-.65-2-1.63-5s-1.62-5-1.93-6.08h0Q20.61,23.19,17.63,32.26Z" style="fill:#9797fd"/><path d="M46.35,34.61H38.48A5.2,5.2,0,0,0,40,38.42a5.86,5.86,0,0,0,4.28,1.43,11.14,11.14,0,0,0,4.85-1c.16,0,.24,0,.24.2V42a.46.46,0,0,1-.24.47,14,14,0,0,1-5.9,1.14,11.71,11.71,0,0,1-4.58-.82,7.35,7.35,0,0,1-3-2.23A9.88,9.88,0,0,1,34,37.49a11.87,11.87,0,0,1-.53-3.58,10.7,10.7,0,0,1,2.49-7.19,8.45,8.45,0,0,1,6.79-2.91q4.07,0,6.1,2.43a8.51,8.51,0,0,1,2,5.67,15.27,15.27,0,0,1-.16,2.23.33.33,0,0,1-.31.31A32.54,32.54,0,0,1,46.35,34.61Zm-7.87-3.05H44a13.35,13.35,0,0,0,2.07-.08,2.39,2.39,0,0,0,0-.55,4.45,4.45,0,0,0-.84-2.66,3.16,3.16,0,0,0-2.76-1.17,3.51,3.51,0,0,0-2.88,1.27A5.69,5.69,0,0,0,38.48,31.56Z" style="fill:#9797fd"/></svg>