<svg id="Layer_1" data-name="Layer 1" xmlns="http://www.w3.org/2000/svg" viewBox="0 0 60.34 60.34"><rect width="60.34" height="60.34" rx="12.86" style="fill:#023301"/><path d="M9.53,42.87V17.47a.28.28,0,0,1,.24-.31q2.46-.07,8.06-.08,6.57,0,10,3.54a12.71,12.71,0,0,1,3.45,9.26,15.55,15.55,0,0,1-.86,5.3A11.29,11.29,0,0,1,28.18,39a12.15,12.15,0,0,1-3.27,2.47,15.16,15.16,0,0,1-3.82,1.39,19.31,19.31,0,0,1-4,.41q-3.75,0-7.35-.08C9.61,43.22,9.53,43.1,9.53,42.87Zm5-22v18.7c.94.05,1.85.08,2.74.08a8.82,8.82,0,0,0,6.57-2.37q2.36-2.37,2.35-7.3,0-4.57-2.15-6.88a8.11,8.11,0,0,0-6.18-2.31C16,20.76,14.92,20.79,14.5,20.84Z" style="fill:#2bff65"/><path d="M33.91,42.87V28.7c0-1.72,0-3.13-.16-4.22,0-.21,0-.32.24-.32h3.75a.59.59,0,0,1,.51.32A7.22,7.22,0,0,1,38.53,26a8,8,0,0,1,5.71-2.23,6.62,6.62,0,0,1,4.62,1.8q1.95,1.8,2,6V42.87c0,.23-.1.35-.31.35H46.2a.32.32,0,0,1-.36-.35V31.48A4.36,4.36,0,0,0,45,28.66a2.94,2.94,0,0,0-2.42-1,4.77,4.77,0,0,0-3.72,1.72V42.91c0,.21-.12.31-.35.31H34.22C34,43.22,33.91,43.1,33.91,42.87Z" style="fill:#2bff65"/></svg>