<svg id="Layer_1" data-name="Layer 1" xmlns="http://www.w3.org/2000/svg" viewBox="0 0 60.34 60.34"><rect width="60.34" height="60.34" rx="12.86" style="fill:#320000"/><path d="M31.07,36.06H22l-2.27,6.85c0,.2-.17.31-.43.31H15.18q-.39,0-.27-.39L23,19.58a6.6,6.6,0,0,0,.36-2.19c0-.15.09-.23.27-.23h5.64a.35.35,0,0,1,.31.19L38.7,42.87c.07.23,0,.35-.24.35H33.84a.4.4,0,0,1-.39-.28ZM23,32.26h7c-.11-.36-.65-2-1.62-5s-1.63-5-1.94-6.08h0Q26,23.19,23,32.26Z" style="fill:#fd9801"/><path d="M44.76,20.21a2.63,2.63,0,0,1-4.54-1.92,2.57,2.57,0,0,1,2.66-2.66,2.45,2.45,0,0,1,1.88.75,2.65,2.65,0,0,1,.71,1.91A2.6,2.6,0,0,1,44.76,20.21ZM40.34,42.87V24.48a.28.28,0,0,1,.31-.32H45a.28.28,0,0,1,.31.32V42.91a.28.28,0,0,1-.31.31H40.69A.31.31,0,0,1,40.34,42.87Z" style="fill:#fd9801"/></svg>