<svg id="Layer_1" data-name="Layer 1" xmlns="http://www.w3.org/2000/svg" viewBox="0 0 60.34 60.34"><rect width="60.34" height="60.34" rx="12.86" style="fill:#49021f"/><path d="M22.32,17.47v25.4c0,.23-.1.35-.31.35h-4.3a.32.32,0,0,1-.36-.35V17.47c0-.21.12-.31.36-.31H22A.27.27,0,0,1,22.32,17.47Z" style="fill:#fd3366"/><path d="M34.89,43.61a10.52,10.52,0,0,1-7.3-2.48q-2.76-2.49-2.76-7.3a9.52,9.52,0,0,1,3-7.18,11,11,0,0,1,7.93-2.84,8.09,8.09,0,0,1,2.19.24V15.28a.24.24,0,0,1,.27-.27h4.46a.21.21,0,0,1,.24.23v23.6c0,.44,0,1.33.11,2.66a.28.28,0,0,1-.23.35A17.88,17.88,0,0,1,34.89,43.61Zm3-4.07V27.68a5.22,5.22,0,0,0-2.27-.43,5.43,5.43,0,0,0-4.15,1.67,6.63,6.63,0,0,0-1.56,4.71,6.53,6.53,0,0,0,1.56,4.78A5.36,5.36,0,0,0,35.43,40,5.64,5.64,0,0,0,37.9,39.54Z" style="fill:#fd3366"/></svg>