<svg id="Layer_1" data-name="Layer 1" xmlns="http://www.w3.org/2000/svg" viewBox="0 0 60.34 60.34"><rect width="60.34" height="60.34" rx="12.86" style="fill:#001e36"/><path d="M13.86,42.77V17.26a.24.24,0,0,1,.27-.27c2-.06,4.5-.08,7.55-.08q5.4,0,7.93,2.42a8,8,0,0,1,2.52,6A7.41,7.41,0,0,1,29,31.89a13.55,13.55,0,0,1-7.87,2.16h-2.3v8.68a.29.29,0,0,1-.32.32H14.17C14,43.05,13.86,43,13.86,42.77Zm5-22.11v9.63a24.57,24.57,0,0,0,2.54.08,7.14,7.14,0,0,0,4.24-1.16,4.28,4.28,0,0,0,1.63-3.77,4.48,4.48,0,0,0-1.43-3.56,6.05,6.05,0,0,0-4.13-1.26l-1.31,0c-.43,0-.78,0-1.06,0Z" style="fill:#33a6fd"/><path d="M45,28.49a8.55,8.55,0,0,0-4.58-1.37,3.23,3.23,0,0,0-2,.51,1.51,1.51,0,0,0-.65,1.21,1.67,1.67,0,0,0,.55,1.23,7.82,7.82,0,0,0,2.31,1.24A12.57,12.57,0,0,1,45.18,34a5,5,0,0,1,1.31,3.58,5.21,5.21,0,0,1-2,4.28A8.39,8.39,0,0,1,39,43.44a11.21,11.21,0,0,1-5.64-1.26c-.16,0-.23-.18-.23-.39V38.15a.23.23,0,0,1,.09-.21.14.14,0,0,1,.18,0,9,9,0,0,0,5.44,1.88A3.77,3.77,0,0,0,41,39.35a1.49,1.49,0,0,0,.73-1.27,1.87,1.87,0,0,0-.59-1.39,7.44,7.44,0,0,0-2.31-1.24,11.16,11.16,0,0,1-4.36-2.6,5.08,5.08,0,0,1-1.24-3.5A5.26,5.26,0,0,1,35,25.28a7.66,7.66,0,0,1,5.25-1.64,11.1,11.1,0,0,1,4.89.86c.13.08.19.25.19.51v3.24C45.35,28.57,45.24,28.65,45,28.49Z" style="fill:#33a6fd"/></svg>