<svg id="Layer_1" data-name="Layer 1" xmlns="http://www.w3.org/2000/svg" viewBox="0 0 60.34 60.34"><rect width="60.34" height="60.34" rx="12.86" style="fill:#370000"/><path d="M18.9,43.59A14.52,14.52,0,0,1,11.82,42c-.18-.08-.27-.26-.27-.55v-4a.23.23,0,0,1,.09-.21c.07,0,.15,0,.26,0a12.23,12.23,0,0,0,7.16,2.39,5.45,5.45,0,0,0,3.44-.88,2.73,2.73,0,0,0,1.1-2.21,3,3,0,0,0-.86-2.21,10.73,10.73,0,0,0-3.21-1.9l-1.61-.66a12.5,12.5,0,0,1-4.77-3.25,6.79,6.79,0,0,1-1.41-4.46,6.7,6.7,0,0,1,2.37-5.23q2.37-2.09,6.75-2.09a12.81,12.81,0,0,1,6,1.17.56.56,0,0,1,.27.51v3.64c0,.26-.12.32-.35.16a11.29,11.29,0,0,0-6.07-1.64,4.59,4.59,0,0,0-3.19.93,2.8,2.8,0,0,0-1,2,2.87,2.87,0,0,0,.82,2.07,10.26,10.26,0,0,0,3.21,1.92l1.64.7a12.49,12.49,0,0,1,5,3.37,6.93,6.93,0,0,1,1.37,4.3A6.77,6.77,0,0,1,26,41.54,11.2,11.2,0,0,1,18.9,43.59Z" style="fill:#f81000"/><path d="M39.21,23.79q4.66,0,7.12,2.7A9.69,9.69,0,0,1,48.8,33.3a11.05,11.05,0,0,1-.92,4.58,8.39,8.39,0,0,1-2.49,3.25A11.55,11.55,0,0,1,42,43a12.33,12.33,0,0,1-3.89.62,7.91,7.91,0,0,1-2.35-.27v8.06a.32.32,0,0,1-.31.35l-1.71.18-1.86.17c-.52.06-.8.08-.86.08s-.23-.09-.23-.27V28a15.88,15.88,0,0,0-.16-2.35c0-.13,0-.21.16-.23A27.37,27.37,0,0,1,39.21,23.79Zm-.51,3.6a9.42,9.42,0,0,0-3,.47V39.6a6.42,6.42,0,0,0,2.7.55,4.9,4.9,0,0,0,3.74-1.7,7,7,0,0,0,1.54-4.87A6.91,6.91,0,0,0,42.36,29,4.54,4.54,0,0,0,38.7,27.39Z" style="fill:#f81000"/></svg>